<?xml version="1.0" encoding="UTF-8" standalone="no"?>
<!DOCTYPE svg PUBLIC "-//W3C//DTD SVG 1.1//EN"
 "http://www.w3.org/Graphics/SVG/1.1/DTD/svg11.dtd">
<!-- Generated by graphviz version 12.1.2 (0)
 -->
<!-- Title: Tree Pages: 1 -->
<svg width="575pt" height="355pt"
 viewBox="0.00 0.00 575.00 355.00" xmlns="http://www.w3.org/2000/svg" xmlns:xlink="http://www.w3.org/1999/xlink">
<g id="graph0" class="graph" transform="scale(1 1) rotate(0) translate(4 351)">
<title>Tree</title>
<polygon fill="white" stroke="none" points="-4,4 -4,-351 571,-351 571,4 -4,4"/>
<text text-anchor="middle" x="283.5" y="-324" font-family="Times,serif" font-size="20.00">Decision Tree (Train= 80%, Test= 20%, max_depth= 2)</text>
<!-- 0 -->
<g id="node1" class="node">
<title>0</title>
<path fill="#cde6f8" stroke="black" d="M371,-316.5C371,-316.5 199,-316.5 199,-316.5 193,-316.5 187,-310.5 187,-304.5 187,-304.5 187,-241.75 187,-241.75 187,-235.75 193,-229.75 199,-229.75 199,-229.75 371,-229.75 371,-229.75 377,-229.75 383,-235.75 383,-241.75 383,-241.75 383,-304.5 383,-304.5 383,-310.5 377,-316.5 371,-316.5"/>
<text text-anchor="start" x="195" y="-299.2" font-family="Helvetica,sans-Serif" font-size="14.00">Major_Axis_Length ≤ 190.641</text>
<text text-anchor="start" x="237.75" y="-283.45" font-family="Helvetica,sans-Serif" font-size="14.00">entropy = 0.985</text>
<text text-anchor="start" x="236.62" y="-267.7" font-family="Helvetica,sans-Serif" font-size="14.00">samples = 3048</text>
<text text-anchor="start" x="223.5" y="-251.95" font-family="Helvetica,sans-Serif" font-size="14.00">value = [1304, 1744]</text>
<text text-anchor="start" x="231" y="-236.2" font-family="Helvetica,sans-Serif" font-size="14.00">class = Osmancik</text>
</g>
<!-- 1 -->
<g id="node2" class="node">
<title>1</title>
<path fill="#43a2e6" stroke="black" d="M278,-193.75C278,-193.75 106,-193.75 106,-193.75 100,-193.75 94,-187.75 94,-181.75 94,-181.75 94,-119 94,-119 94,-113 100,-107 106,-107 106,-107 278,-107 278,-107 284,-107 290,-113 290,-119 290,-119 290,-181.75 290,-181.75 290,-187.75 284,-193.75 278,-193.75"/>
<text text-anchor="start" x="102" y="-176.45" font-family="Helvetica,sans-Serif" font-size="14.00">Major_Axis_Length ≤ 181.237</text>
<text text-anchor="start" x="144.75" y="-160.7" font-family="Helvetica,sans-Serif" font-size="14.00">entropy = 0.279</text>
<text text-anchor="start" x="143.62" y="-144.95" font-family="Helvetica,sans-Serif" font-size="14.00">samples = 1698</text>
<text text-anchor="start" x="138" y="-129.2" font-family="Helvetica,sans-Serif" font-size="14.00">value = [82, 1616]</text>
<text text-anchor="start" x="138" y="-113.45" font-family="Helvetica,sans-Serif" font-size="14.00">class = Osmancik</text>
</g>
<!-- 0&#45;&gt;1 -->
<g id="edge1" class="edge">
<title>0&#45;&gt;1</title>
<path fill="none" stroke="black" d="M252.21,-229.55C245.61,-220.99 238.61,-211.89 231.8,-203.06"/>
<polygon fill="black" stroke="black" points="234.6,-200.96 225.73,-195.17 229.06,-205.23 234.6,-200.96"/>
<text text-anchor="middle" x="221.59" y="-213.34" font-family="Helvetica,sans-Serif" font-size="14.00">True</text>
</g>
<!-- 4 -->
<g id="node5" class="node">
<title>4</title>
<path fill="#e88e4e" stroke="black" d="M435.5,-193.75C435.5,-193.75 320.5,-193.75 320.5,-193.75 314.5,-193.75 308.5,-187.75 308.5,-181.75 308.5,-181.75 308.5,-119 308.5,-119 308.5,-113 314.5,-107 320.5,-107 320.5,-107 435.5,-107 435.5,-107 441.5,-107 447.5,-113 447.5,-119 447.5,-119 447.5,-181.75 447.5,-181.75 447.5,-187.75 441.5,-193.75 435.5,-193.75"/>
<text text-anchor="start" x="316.5" y="-176.45" font-family="Helvetica,sans-Serif" font-size="14.00">Perimeter ≤ 467.861</text>
<text text-anchor="start" x="330.75" y="-160.7" font-family="Helvetica,sans-Serif" font-size="14.00">entropy = 0.452</text>
<text text-anchor="start" x="329.62" y="-144.95" font-family="Helvetica,sans-Serif" font-size="14.00">samples = 1350</text>
<text text-anchor="start" x="320.25" y="-129.2" font-family="Helvetica,sans-Serif" font-size="14.00">value = [1222, 128]</text>
<text text-anchor="start" x="326.62" y="-113.45" font-family="Helvetica,sans-Serif" font-size="14.00">class = Cammeo</text>
</g>
<!-- 0&#45;&gt;4 -->
<g id="edge4" class="edge">
<title>0&#45;&gt;4</title>
<path fill="none" stroke="black" d="M317.79,-229.55C324.39,-220.99 331.39,-211.89 338.2,-203.06"/>
<polygon fill="black" stroke="black" points="340.94,-205.23 344.27,-195.17 335.4,-200.96 340.94,-205.23"/>
<text text-anchor="middle" x="348.41" y="-213.34" font-family="Helvetica,sans-Serif" font-size="14.00">False</text>
</g>
<!-- 2 -->
<g id="node3" class="node">
<title>2</title>
<path fill="#3b9ee5" stroke="black" d="M112,-71C112,-71 12,-71 12,-71 6,-71 0,-65 0,-59 0,-59 0,-12 0,-12 0,-6 6,0 12,0 12,0 112,0 112,0 118,0 124,-6 124,-12 124,-12 124,-59 124,-59 124,-65 118,-71 112,-71"/>
<text text-anchor="start" x="14.75" y="-53.7" font-family="Helvetica,sans-Serif" font-size="14.00">entropy = 0.077</text>
<text text-anchor="start" x="13.62" y="-37.95" font-family="Helvetica,sans-Serif" font-size="14.00">samples = 1282</text>
<text text-anchor="start" x="8" y="-22.2" font-family="Helvetica,sans-Serif" font-size="14.00">value = [12, 1270]</text>
<text text-anchor="start" x="8" y="-6.45" font-family="Helvetica,sans-Serif" font-size="14.00">class = Osmancik</text>
</g>
<!-- 1&#45;&gt;2 -->
<g id="edge2" class="edge">
<title>1&#45;&gt;2</title>
<path fill="none" stroke="black" d="M142.85,-106.7C132.29,-97.53 121.14,-87.85 110.6,-78.7"/>
<polygon fill="black" stroke="black" points="112.9,-76.06 103.06,-72.15 108.31,-81.35 112.9,-76.06"/>
</g>
<!-- 3 -->
<g id="node4" class="node">
<title>3</title>
<path fill="#61b1ea" stroke="black" d="M254,-71C254,-71 154,-71 154,-71 148,-71 142,-65 142,-59 142,-59 142,-12 142,-12 142,-6 148,0 154,0 154,0 254,0 254,0 260,0 266,-6 266,-12 266,-12 266,-59 266,-59 266,-65 260,-71 254,-71"/>
<text text-anchor="start" x="156.75" y="-53.7" font-family="Helvetica,sans-Serif" font-size="14.00">entropy = 0.654</text>
<text text-anchor="start" x="159.38" y="-37.95" font-family="Helvetica,sans-Serif" font-size="14.00">samples = 416</text>
<text text-anchor="start" x="153.75" y="-22.2" font-family="Helvetica,sans-Serif" font-size="14.00">value = [70, 346]</text>
<text text-anchor="start" x="150" y="-6.45" font-family="Helvetica,sans-Serif" font-size="14.00">class = Osmancik</text>
</g>
<!-- 1&#45;&gt;3 -->
<g id="edge3" class="edge">
<title>1&#45;&gt;3</title>
<path fill="none" stroke="black" d="M196.54,-106.7C197.38,-98.82 198.25,-90.55 199.1,-82.57"/>
<polygon fill="black" stroke="black" points="202.58,-82.98 200.16,-72.66 195.62,-82.24 202.58,-82.98"/>
</g>
<!-- 5 -->
<g id="node6" class="node">
<title>5</title>
<path fill="#f5cdb1" stroke="black" d="M413.38,-71C413.38,-71 318.62,-71 318.62,-71 312.62,-71 306.62,-65 306.62,-59 306.62,-59 306.62,-12 306.62,-12 306.62,-6 312.62,0 318.62,0 318.62,0 413.38,0 413.38,0 419.38,0 425.38,-6 425.38,-12 425.38,-12 425.38,-59 425.38,-59 425.38,-65 419.38,-71 413.38,-71"/>
<text text-anchor="start" x="318.75" y="-53.7" font-family="Helvetica,sans-Serif" font-size="14.00">entropy = 0.956</text>
<text text-anchor="start" x="321.38" y="-37.95" font-family="Helvetica,sans-Serif" font-size="14.00">samples = 239</text>
<text text-anchor="start" x="315.75" y="-22.2" font-family="Helvetica,sans-Serif" font-size="14.00">value = [149, 90]</text>
<text text-anchor="start" x="314.62" y="-6.45" font-family="Helvetica,sans-Serif" font-size="14.00">class = Cammeo</text>
</g>
<!-- 4&#45;&gt;5 -->
<g id="edge5" class="edge">
<title>4&#45;&gt;5</title>
<path fill="none" stroke="black" d="M373.46,-106.7C372.62,-98.82 371.75,-90.55 370.9,-82.57"/>
<polygon fill="black" stroke="black" points="374.38,-82.24 369.84,-72.66 367.42,-82.98 374.38,-82.24"/>
</g>
<!-- 6 -->
<g id="node7" class="node">
<title>6</title>
<path fill="#e68540" stroke="black" d="M555,-71C555,-71 455,-71 455,-71 449,-71 443,-65 443,-59 443,-59 443,-12 443,-12 443,-6 449,0 455,0 455,0 555,0 555,0 561,0 567,-6 567,-12 567,-12 567,-59 567,-59 567,-65 561,-71 555,-71"/>
<text text-anchor="start" x="457.75" y="-53.7" font-family="Helvetica,sans-Serif" font-size="14.00">entropy = 0.215</text>
<text text-anchor="start" x="457.75" y="-37.95" font-family="Helvetica,sans-Serif" font-size="14.00">samples = 1111</text>
<text text-anchor="start" x="451" y="-22.2" font-family="Helvetica,sans-Serif" font-size="14.00">value = [1073, 38]</text>
<text text-anchor="start" x="453.62" y="-6.45" font-family="Helvetica,sans-Serif" font-size="14.00">class = Cammeo</text>
</g>
<!-- 4&#45;&gt;6 -->
<g id="edge6" class="edge">
<title>4&#45;&gt;6</title>
<path fill="none" stroke="black" d="M426.01,-106.7C436.33,-97.53 447.23,-87.85 457.52,-78.7"/>
<polygon fill="black" stroke="black" points="459.72,-81.42 464.87,-72.16 455.07,-76.19 459.72,-81.42"/>
</g>
</g>
</svg>
