<?xml version="1.0" encoding="UTF-8" standalone="no"?>
<!DOCTYPE svg PUBLIC "-//W3C//DTD SVG 1.1//EN"
 "http://www.w3.org/Graphics/SVG/1.1/DTD/svg11.dtd">
<!-- Generated by graphviz version 12.1.2 (0)
 -->
<!-- Title: Tree Pages: 1 -->
<svg width="1711pt" height="601pt"
 viewBox="0.00 0.00 1711.38 600.50" xmlns="http://www.w3.org/2000/svg" xmlns:xlink="http://www.w3.org/1999/xlink">
<g id="graph0" class="graph" transform="scale(1 1) rotate(0) translate(4 596.5)">
<title>Tree</title>
<polygon fill="white" stroke="none" points="-4,4 -4,-596.5 1707.38,-596.5 1707.38,4 -4,4"/>
<text text-anchor="middle" x="851.69" y="-569.5" font-family="Times,serif" font-size="20.00">Decision Tree (Train= 80%, Test= 20%, max_depth= 4)</text>
<!-- 0 -->
<g id="node1" class="node">
<title>0</title>
<path fill="#cde6f8" stroke="black" d="M921,-562C921,-562 749,-562 749,-562 743,-562 737,-556 737,-550 737,-550 737,-487.25 737,-487.25 737,-481.25 743,-475.25 749,-475.25 749,-475.25 921,-475.25 921,-475.25 927,-475.25 933,-481.25 933,-487.25 933,-487.25 933,-550 933,-550 933,-556 927,-562 921,-562"/>
<text text-anchor="start" x="745" y="-544.7" font-family="Helvetica,sans-Serif" font-size="14.00">Major_Axis_Length ≤ 190.641</text>
<text text-anchor="start" x="787.75" y="-528.95" font-family="Helvetica,sans-Serif" font-size="14.00">entropy = 0.985</text>
<text text-anchor="start" x="786.62" y="-513.2" font-family="Helvetica,sans-Serif" font-size="14.00">samples = 3048</text>
<text text-anchor="start" x="773.5" y="-497.45" font-family="Helvetica,sans-Serif" font-size="14.00">value = [1304, 1744]</text>
<text text-anchor="start" x="781" y="-481.7" font-family="Helvetica,sans-Serif" font-size="14.00">class = Osmancik</text>
</g>
<!-- 1 -->
<g id="node2" class="node">
<title>1</title>
<path fill="#43a2e6" stroke="black" d="M637,-439.25C637,-439.25 465,-439.25 465,-439.25 459,-439.25 453,-433.25 453,-427.25 453,-427.25 453,-364.5 453,-364.5 453,-358.5 459,-352.5 465,-352.5 465,-352.5 637,-352.5 637,-352.5 643,-352.5 649,-358.5 649,-364.5 649,-364.5 649,-427.25 649,-427.25 649,-433.25 643,-439.25 637,-439.25"/>
<text text-anchor="start" x="461" y="-421.95" font-family="Helvetica,sans-Serif" font-size="14.00">Major_Axis_Length ≤ 181.237</text>
<text text-anchor="start" x="503.75" y="-406.2" font-family="Helvetica,sans-Serif" font-size="14.00">entropy = 0.279</text>
<text text-anchor="start" x="502.62" y="-390.45" font-family="Helvetica,sans-Serif" font-size="14.00">samples = 1698</text>
<text text-anchor="start" x="497" y="-374.7" font-family="Helvetica,sans-Serif" font-size="14.00">value = [82, 1616]</text>
<text text-anchor="start" x="497" y="-358.95" font-family="Helvetica,sans-Serif" font-size="14.00">class = Osmancik</text>
</g>
<!-- 0&#45;&gt;1 -->
<g id="edge1" class="edge">
<title>0&#45;&gt;1</title>
<path fill="none" stroke="black" d="M736.87,-475.9C711.92,-465.3 684.98,-453.84 659.55,-443.03"/>
<polygon fill="black" stroke="black" points="661.1,-439.89 650.53,-439.19 658.36,-446.33 661.1,-439.89"/>
<text text-anchor="middle" x="658.49" y="-456.36" font-family="Helvetica,sans-Serif" font-size="14.00">True</text>
</g>
<!-- 14 -->
<g id="node15" class="node">
<title>14</title>
<path fill="#e88e4e" stroke="black" d="M1180.5,-439.25C1180.5,-439.25 1065.5,-439.25 1065.5,-439.25 1059.5,-439.25 1053.5,-433.25 1053.5,-427.25 1053.5,-427.25 1053.5,-364.5 1053.5,-364.5 1053.5,-358.5 1059.5,-352.5 1065.5,-352.5 1065.5,-352.5 1180.5,-352.5 1180.5,-352.5 1186.5,-352.5 1192.5,-358.5 1192.5,-364.5 1192.5,-364.5 1192.5,-427.25 1192.5,-427.25 1192.5,-433.25 1186.5,-439.25 1180.5,-439.25"/>
<text text-anchor="start" x="1061.5" y="-421.95" font-family="Helvetica,sans-Serif" font-size="14.00">Perimeter ≤ 467.861</text>
<text text-anchor="start" x="1075.75" y="-406.2" font-family="Helvetica,sans-Serif" font-size="14.00">entropy = 0.452</text>
<text text-anchor="start" x="1074.62" y="-390.45" font-family="Helvetica,sans-Serif" font-size="14.00">samples = 1350</text>
<text text-anchor="start" x="1065.25" y="-374.7" font-family="Helvetica,sans-Serif" font-size="14.00">value = [1222, 128]</text>
<text text-anchor="start" x="1071.62" y="-358.95" font-family="Helvetica,sans-Serif" font-size="14.00">class = Cammeo</text>
</g>
<!-- 0&#45;&gt;14 -->
<g id="edge14" class="edge">
<title>0&#45;&gt;14</title>
<path fill="none" stroke="black" d="M933.31,-476.41C969.05,-461.42 1008.97,-444.68 1042.94,-430.44"/>
<polygon fill="black" stroke="black" points="1044.02,-433.79 1051.88,-426.69 1041.31,-427.33 1044.02,-433.79"/>
<text text-anchor="middle" x="1043.81" y="-443.82" font-family="Helvetica,sans-Serif" font-size="14.00">False</text>
</g>
<!-- 2 -->
<g id="node3" class="node">
<title>2</title>
<path fill="#3b9ee5" stroke="black" d="M290,-316.5C290,-316.5 118,-316.5 118,-316.5 112,-316.5 106,-310.5 106,-304.5 106,-304.5 106,-241.75 106,-241.75 106,-235.75 112,-229.75 118,-229.75 118,-229.75 290,-229.75 290,-229.75 296,-229.75 302,-235.75 302,-241.75 302,-241.75 302,-304.5 302,-304.5 302,-310.5 296,-316.5 290,-316.5"/>
<text text-anchor="start" x="114" y="-299.2" font-family="Helvetica,sans-Serif" font-size="14.00">Major_Axis_Length ≤ 170.776</text>
<text text-anchor="start" x="156.75" y="-283.45" font-family="Helvetica,sans-Serif" font-size="14.00">entropy = 0.077</text>
<text text-anchor="start" x="155.62" y="-267.7" font-family="Helvetica,sans-Serif" font-size="14.00">samples = 1282</text>
<text text-anchor="start" x="150" y="-251.95" font-family="Helvetica,sans-Serif" font-size="14.00">value = [12, 1270]</text>
<text text-anchor="start" x="150" y="-236.2" font-family="Helvetica,sans-Serif" font-size="14.00">class = Osmancik</text>
</g>
<!-- 1&#45;&gt;2 -->
<g id="edge2" class="edge">
<title>1&#45;&gt;2</title>
<path fill="none" stroke="black" d="M452.96,-360.76C409.35,-345.58 357.86,-327.66 313.04,-312.07"/>
<polygon fill="black" stroke="black" points="314.43,-308.85 303.83,-308.87 312.13,-315.46 314.43,-308.85"/>
</g>
<!-- 7 -->
<g id="node8" class="node">
<title>7</title>
<path fill="#61b1ea" stroke="black" d="M637,-316.5C637,-316.5 465,-316.5 465,-316.5 459,-316.5 453,-310.5 453,-304.5 453,-304.5 453,-241.75 453,-241.75 453,-235.75 459,-229.75 465,-229.75 465,-229.75 637,-229.75 637,-229.75 643,-229.75 649,-235.75 649,-241.75 649,-241.75 649,-304.5 649,-304.5 649,-310.5 643,-316.5 637,-316.5"/>
<text text-anchor="start" x="461" y="-299.2" font-family="Helvetica,sans-Serif" font-size="14.00">Major_Axis_Length ≤ 186.506</text>
<text text-anchor="start" x="503.75" y="-283.45" font-family="Helvetica,sans-Serif" font-size="14.00">entropy = 0.654</text>
<text text-anchor="start" x="506.38" y="-267.7" font-family="Helvetica,sans-Serif" font-size="14.00">samples = 416</text>
<text text-anchor="start" x="500.75" y="-251.95" font-family="Helvetica,sans-Serif" font-size="14.00">value = [70, 346]</text>
<text text-anchor="start" x="497" y="-236.2" font-family="Helvetica,sans-Serif" font-size="14.00">class = Osmancik</text>
</g>
<!-- 1&#45;&gt;7 -->
<g id="edge7" class="edge">
<title>1&#45;&gt;7</title>
<path fill="none" stroke="black" d="M551,-352.3C551,-344.46 551,-336.17 551,-328.04"/>
<polygon fill="black" stroke="black" points="554.5,-328.23 551,-318.23 547.5,-328.23 554.5,-328.23"/>
</g>
<!-- 3 -->
<g id="node4" class="node">
<title>3</title>
<path fill="#399de5" stroke="black" d="M112,-185.88C112,-185.88 12,-185.88 12,-185.88 6,-185.88 0,-179.88 0,-173.88 0,-173.88 0,-126.88 0,-126.88 0,-120.88 6,-114.88 12,-114.88 12,-114.88 112,-114.88 112,-114.88 118,-114.88 124,-120.88 124,-126.88 124,-126.88 124,-173.88 124,-173.88 124,-179.88 118,-185.88 112,-185.88"/>
<text text-anchor="start" x="22.25" y="-168.57" font-family="Helvetica,sans-Serif" font-size="14.00">entropy = 0.0</text>
<text text-anchor="start" x="17.38" y="-152.82" font-family="Helvetica,sans-Serif" font-size="14.00">samples = 502</text>
<text text-anchor="start" x="15.5" y="-137.07" font-family="Helvetica,sans-Serif" font-size="14.00">value = [0, 502]</text>
<text text-anchor="start" x="8" y="-121.33" font-family="Helvetica,sans-Serif" font-size="14.00">class = Osmancik</text>
</g>
<!-- 2&#45;&gt;3 -->
<g id="edge3" class="edge">
<title>2&#45;&gt;3</title>
<path fill="none" stroke="black" d="M153.94,-229.55C140.05,-217.74 124.99,-204.94 111.16,-193.18"/>
<polygon fill="black" stroke="black" points="113.76,-190.8 103.88,-186.98 109.23,-196.13 113.76,-190.8"/>
</g>
<!-- 4 -->
<g id="node5" class="node">
<title>4</title>
<path fill="#3c9fe5" stroke="black" d="M254,-193.75C254,-193.75 154,-193.75 154,-193.75 148,-193.75 142,-187.75 142,-181.75 142,-181.75 142,-119 142,-119 142,-113 148,-107 154,-107 154,-107 254,-107 254,-107 260,-107 266,-113 266,-119 266,-119 266,-181.75 266,-181.75 266,-187.75 260,-193.75 254,-193.75"/>
<text text-anchor="start" x="160.5" y="-176.45" font-family="Helvetica,sans-Serif" font-size="14.00">Extent ≤ 0.824</text>
<text text-anchor="start" x="157.12" y="-160.7" font-family="Helvetica,sans-Serif" font-size="14.00">entropy = 0.115</text>
<text text-anchor="start" x="159.38" y="-144.95" font-family="Helvetica,sans-Serif" font-size="14.00">samples = 780</text>
<text text-anchor="start" x="153.75" y="-129.2" font-family="Helvetica,sans-Serif" font-size="14.00">value = [12, 768]</text>
<text text-anchor="start" x="150" y="-113.45" font-family="Helvetica,sans-Serif" font-size="14.00">class = Osmancik</text>
</g>
<!-- 2&#45;&gt;4 -->
<g id="edge4" class="edge">
<title>2&#45;&gt;4</title>
<path fill="none" stroke="black" d="M204,-229.55C204,-221.71 204,-213.42 204,-205.29"/>
<polygon fill="black" stroke="black" points="207.5,-205.48 204,-195.48 200.5,-205.48 207.5,-205.48"/>
</g>
<!-- 5 -->
<g id="node6" class="node">
<title>5</title>
<path fill="#3c9ee5" stroke="black" d="M115,-71C115,-71 15,-71 15,-71 9,-71 3,-65 3,-59 3,-59 3,-12 3,-12 3,-6 9,0 15,0 15,0 115,0 115,0 121,0 127,-6 127,-12 127,-12 127,-59 127,-59 127,-65 121,-71 115,-71"/>
<text text-anchor="start" x="17.75" y="-53.7" font-family="Helvetica,sans-Serif" font-size="14.00">entropy = 0.107</text>
<text text-anchor="start" x="20.38" y="-37.95" font-family="Helvetica,sans-Serif" font-size="14.00">samples = 779</text>
<text text-anchor="start" x="15.12" y="-22.2" font-family="Helvetica,sans-Serif" font-size="14.00">value = [11, 768]</text>
<text text-anchor="start" x="11" y="-6.45" font-family="Helvetica,sans-Serif" font-size="14.00">class = Osmancik</text>
</g>
<!-- 4&#45;&gt;5 -->
<g id="edge5" class="edge">
<title>4&#45;&gt;5</title>
<path fill="none" stroke="black" d="M151.45,-106.7C139.93,-97.35 127.75,-87.46 116.29,-78.15"/>
<polygon fill="black" stroke="black" points="118.82,-75.7 108.85,-72.11 114.41,-81.13 118.82,-75.7"/>
</g>
<!-- 6 -->
<g id="node7" class="node">
<title>6</title>
<path fill="#e58139" stroke="black" d="M251.38,-71C251.38,-71 156.62,-71 156.62,-71 150.62,-71 144.62,-65 144.62,-59 144.62,-59 144.62,-12 144.62,-12 144.62,-6 150.62,0 156.62,0 156.62,0 251.38,0 251.38,0 257.38,0 263.38,-6 263.38,-12 263.38,-12 263.38,-59 263.38,-59 263.38,-65 257.38,-71 251.38,-71"/>
<text text-anchor="start" x="164.25" y="-53.7" font-family="Helvetica,sans-Serif" font-size="14.00">entropy = 0.0</text>
<text text-anchor="start" x="166.88" y="-37.95" font-family="Helvetica,sans-Serif" font-size="14.00">samples = 1</text>
<text text-anchor="start" x="165" y="-22.2" font-family="Helvetica,sans-Serif" font-size="14.00">value = [1, 0]</text>
<text text-anchor="start" x="152.62" y="-6.45" font-family="Helvetica,sans-Serif" font-size="14.00">class = Cammeo</text>
</g>
<!-- 4&#45;&gt;6 -->
<g id="edge6" class="edge">
<title>4&#45;&gt;6</title>
<path fill="none" stroke="black" d="M204,-106.7C204,-98.82 204,-90.55 204,-82.57"/>
<polygon fill="black" stroke="black" points="207.5,-82.67 204,-72.67 200.5,-82.67 207.5,-82.67"/>
</g>
<!-- 8 -->
<g id="node9" class="node">
<title>8</title>
<path fill="#54abe9" stroke="black" d="M532.88,-193.75C532.88,-193.75 423.12,-193.75 423.12,-193.75 417.12,-193.75 411.12,-187.75 411.12,-181.75 411.12,-181.75 411.12,-119 411.12,-119 411.12,-113 417.12,-107 423.12,-107 423.12,-107 532.88,-107 532.88,-107 538.88,-107 544.88,-113 544.88,-119 544.88,-119 544.88,-181.75 544.88,-181.75 544.88,-187.75 538.88,-193.75 532.88,-193.75"/>
<text text-anchor="start" x="419.12" y="-176.45" font-family="Helvetica,sans-Serif" font-size="14.00">Eccentricity ≤ 0.843</text>
<text text-anchor="start" x="430.75" y="-160.7" font-family="Helvetica,sans-Serif" font-size="14.00">entropy = 0.534</text>
<text text-anchor="start" x="433.38" y="-144.95" font-family="Helvetica,sans-Serif" font-size="14.00">samples = 271</text>
<text text-anchor="start" x="427.75" y="-129.2" font-family="Helvetica,sans-Serif" font-size="14.00">value = [33, 238]</text>
<text text-anchor="start" x="424" y="-113.45" font-family="Helvetica,sans-Serif" font-size="14.00">class = Osmancik</text>
</g>
<!-- 7&#45;&gt;8 -->
<g id="edge8" class="edge">
<title>7&#45;&gt;8</title>
<path fill="none" stroke="black" d="M525.26,-229.55C520.19,-221.17 514.82,-212.28 509.58,-203.61"/>
<polygon fill="black" stroke="black" points="512.7,-202.01 504.53,-195.26 506.71,-205.63 512.7,-202.01"/>
</g>
<!-- 11 -->
<g id="node12" class="node">
<title>11</title>
<path fill="#7dbfee" stroke="black" d="M675,-193.75C675,-193.75 575,-193.75 575,-193.75 569,-193.75 563,-187.75 563,-181.75 563,-181.75 563,-119 563,-119 563,-113 569,-107 575,-107 575,-107 675,-107 675,-107 681,-107 687,-113 687,-119 687,-119 687,-181.75 687,-181.75 687,-187.75 681,-193.75 675,-193.75"/>
<text text-anchor="start" x="581.5" y="-176.45" font-family="Helvetica,sans-Serif" font-size="14.00">Extent ≤ 0.767</text>
<text text-anchor="start" x="577.75" y="-160.7" font-family="Helvetica,sans-Serif" font-size="14.00">entropy = 0.819</text>
<text text-anchor="start" x="580.38" y="-144.95" font-family="Helvetica,sans-Serif" font-size="14.00">samples = 145</text>
<text text-anchor="start" x="574.75" y="-129.2" font-family="Helvetica,sans-Serif" font-size="14.00">value = [37, 108]</text>
<text text-anchor="start" x="571" y="-113.45" font-family="Helvetica,sans-Serif" font-size="14.00">class = Osmancik</text>
</g>
<!-- 7&#45;&gt;11 -->
<g id="edge11" class="edge">
<title>7&#45;&gt;11</title>
<path fill="none" stroke="black" d="M577.09,-229.55C582.23,-221.17 587.68,-212.28 592.99,-203.61"/>
<polygon fill="black" stroke="black" points="595.86,-205.62 598.11,-195.26 589.9,-201.96 595.86,-205.62"/>
</g>
<!-- 9 -->
<g id="node10" class="node">
<title>9</title>
<path fill="#e58139" stroke="black" d="M388.38,-71C388.38,-71 293.62,-71 293.62,-71 287.62,-71 281.62,-65 281.62,-59 281.62,-59 281.62,-12 281.62,-12 281.62,-6 287.62,0 293.62,0 293.62,0 388.38,0 388.38,0 394.38,0 400.38,-6 400.38,-12 400.38,-12 400.38,-59 400.38,-59 400.38,-65 394.38,-71 388.38,-71"/>
<text text-anchor="start" x="301.25" y="-53.7" font-family="Helvetica,sans-Serif" font-size="14.00">entropy = 0.0</text>
<text text-anchor="start" x="303.88" y="-37.95" font-family="Helvetica,sans-Serif" font-size="14.00">samples = 2</text>
<text text-anchor="start" x="302" y="-22.2" font-family="Helvetica,sans-Serif" font-size="14.00">value = [2, 0]</text>
<text text-anchor="start" x="289.62" y="-6.45" font-family="Helvetica,sans-Serif" font-size="14.00">class = Cammeo</text>
</g>
<!-- 8&#45;&gt;9 -->
<g id="edge9" class="edge">
<title>8&#45;&gt;9</title>
<path fill="none" stroke="black" d="M426.21,-106.7C414.97,-97.44 403.09,-87.65 391.88,-78.42"/>
<polygon fill="black" stroke="black" points="394.18,-75.78 384.23,-72.12 389.73,-81.18 394.18,-75.78"/>
</g>
<!-- 10 -->
<g id="node11" class="node">
<title>10</title>
<path fill="#53aae8" stroke="black" d="M530,-71C530,-71 430,-71 430,-71 424,-71 418,-65 418,-59 418,-59 418,-12 418,-12 418,-6 424,0 430,0 430,0 530,0 530,0 536,0 542,-6 542,-12 542,-12 542,-59 542,-59 542,-65 536,-71 530,-71"/>
<text text-anchor="start" x="432.75" y="-53.7" font-family="Helvetica,sans-Serif" font-size="14.00">entropy = 0.516</text>
<text text-anchor="start" x="435.38" y="-37.95" font-family="Helvetica,sans-Serif" font-size="14.00">samples = 269</text>
<text text-anchor="start" x="429.75" y="-22.2" font-family="Helvetica,sans-Serif" font-size="14.00">value = [31, 238]</text>
<text text-anchor="start" x="426" y="-6.45" font-family="Helvetica,sans-Serif" font-size="14.00">class = Osmancik</text>
</g>
<!-- 8&#45;&gt;10 -->
<g id="edge10" class="edge">
<title>8&#45;&gt;10</title>
<path fill="none" stroke="black" d="M478.76,-106.7C478.9,-98.82 479.04,-90.55 479.18,-82.57"/>
<polygon fill="black" stroke="black" points="482.68,-82.73 479.36,-72.67 475.68,-82.61 482.68,-82.73"/>
</g>
<!-- 12 -->
<g id="node13" class="node">
<title>12</title>
<path fill="#86c3ef" stroke="black" d="M672,-71C672,-71 572,-71 572,-71 566,-71 560,-65 560,-59 560,-59 560,-12 560,-12 560,-6 566,0 572,0 572,0 672,0 672,0 678,0 684,-6 684,-12 684,-12 684,-59 684,-59 684,-65 678,-71 672,-71"/>
<text text-anchor="start" x="574.75" y="-53.7" font-family="Helvetica,sans-Serif" font-size="14.00">entropy = 0.854</text>
<text text-anchor="start" x="577.38" y="-37.95" font-family="Helvetica,sans-Serif" font-size="14.00">samples = 129</text>
<text text-anchor="start" x="575.5" y="-22.2" font-family="Helvetica,sans-Serif" font-size="14.00">value = [36, 93]</text>
<text text-anchor="start" x="568" y="-6.45" font-family="Helvetica,sans-Serif" font-size="14.00">class = Osmancik</text>
</g>
<!-- 11&#45;&gt;12 -->
<g id="edge12" class="edge">
<title>11&#45;&gt;12</title>
<path fill="none" stroke="black" d="M623.87,-106.7C623.66,-98.82 623.44,-90.55 623.22,-82.57"/>
<polygon fill="black" stroke="black" points="626.73,-82.57 622.96,-72.67 619.73,-82.76 626.73,-82.57"/>
</g>
<!-- 13 -->
<g id="node14" class="node">
<title>13</title>
<path fill="#46a4e7" stroke="black" d="M814,-71C814,-71 714,-71 714,-71 708,-71 702,-65 702,-59 702,-59 702,-12 702,-12 702,-6 708,0 714,0 714,0 814,0 814,0 820,0 826,-6 826,-12 826,-12 826,-59 826,-59 826,-65 820,-71 814,-71"/>
<text text-anchor="start" x="716.75" y="-53.7" font-family="Helvetica,sans-Serif" font-size="14.00">entropy = 0.337</text>
<text text-anchor="start" x="723.12" y="-37.95" font-family="Helvetica,sans-Serif" font-size="14.00">samples = 16</text>
<text text-anchor="start" x="721.25" y="-22.2" font-family="Helvetica,sans-Serif" font-size="14.00">value = [1, 15]</text>
<text text-anchor="start" x="710" y="-6.45" font-family="Helvetica,sans-Serif" font-size="14.00">class = Osmancik</text>
</g>
<!-- 11&#45;&gt;13 -->
<g id="edge13" class="edge">
<title>11&#45;&gt;13</title>
<path fill="none" stroke="black" d="M677.55,-106.7C689.07,-97.35 701.25,-87.46 712.71,-78.15"/>
<polygon fill="black" stroke="black" points="714.59,-81.13 720.15,-72.11 710.18,-75.7 714.59,-81.13"/>
</g>
<!-- 15 -->
<g id="node16" class="node">
<title>15</title>
<path fill="#f5cdb1" stroke="black" d="M1209,-316.5C1209,-316.5 1037,-316.5 1037,-316.5 1031,-316.5 1025,-310.5 1025,-304.5 1025,-304.5 1025,-241.75 1025,-241.75 1025,-235.75 1031,-229.75 1037,-229.75 1037,-229.75 1209,-229.75 1209,-229.75 1215,-229.75 1221,-235.75 1221,-241.75 1221,-241.75 1221,-304.5 1221,-304.5 1221,-310.5 1215,-316.5 1209,-316.5"/>
<text text-anchor="start" x="1033" y="-299.2" font-family="Helvetica,sans-Serif" font-size="14.00">Major_Axis_Length ≤ 192.971</text>
<text text-anchor="start" x="1075.75" y="-283.45" font-family="Helvetica,sans-Serif" font-size="14.00">entropy = 0.956</text>
<text text-anchor="start" x="1078.38" y="-267.7" font-family="Helvetica,sans-Serif" font-size="14.00">samples = 239</text>
<text text-anchor="start" x="1072.75" y="-251.95" font-family="Helvetica,sans-Serif" font-size="14.00">value = [149, 90]</text>
<text text-anchor="start" x="1071.62" y="-236.2" font-family="Helvetica,sans-Serif" font-size="14.00">class = Cammeo</text>
</g>
<!-- 14&#45;&gt;15 -->
<g id="edge15" class="edge">
<title>14&#45;&gt;15</title>
<path fill="none" stroke="black" d="M1123,-352.3C1123,-344.46 1123,-336.17 1123,-328.04"/>
<polygon fill="black" stroke="black" points="1126.5,-328.23 1123,-318.23 1119.5,-328.23 1126.5,-328.23"/>
</g>
<!-- 22 -->
<g id="node23" class="node">
<title>22</title>
<path fill="#e68540" stroke="black" d="M1555,-316.5C1555,-316.5 1383,-316.5 1383,-316.5 1377,-316.5 1371,-310.5 1371,-304.5 1371,-304.5 1371,-241.75 1371,-241.75 1371,-235.75 1377,-229.75 1383,-229.75 1383,-229.75 1555,-229.75 1555,-229.75 1561,-229.75 1567,-235.75 1567,-241.75 1567,-241.75 1567,-304.5 1567,-304.5 1567,-310.5 1561,-316.5 1555,-316.5"/>
<text text-anchor="start" x="1379" y="-299.2" font-family="Helvetica,sans-Serif" font-size="14.00">Major_Axis_Length ≤ 206.059</text>
<text text-anchor="start" x="1421.75" y="-283.45" font-family="Helvetica,sans-Serif" font-size="14.00">entropy = 0.215</text>
<text text-anchor="start" x="1421.75" y="-267.7" font-family="Helvetica,sans-Serif" font-size="14.00">samples = 1111</text>
<text text-anchor="start" x="1415" y="-251.95" font-family="Helvetica,sans-Serif" font-size="14.00">value = [1073, 38]</text>
<text text-anchor="start" x="1417.62" y="-236.2" font-family="Helvetica,sans-Serif" font-size="14.00">class = Cammeo</text>
</g>
<!-- 14&#45;&gt;22 -->
<g id="edge22" class="edge">
<title>14&#45;&gt;22</title>
<path fill="none" stroke="black" d="M1192.6,-370.58C1240.52,-353.86 1305.15,-331.31 1359.87,-312.21"/>
<polygon fill="black" stroke="black" points="1360.95,-315.54 1369.24,-308.94 1358.65,-308.93 1360.95,-315.54"/>
</g>
<!-- 16 -->
<g id="node17" class="node">
<title>16</title>
<path fill="#e5f2fc" stroke="black" d="M1107.5,-193.75C1107.5,-193.75 992.5,-193.75 992.5,-193.75 986.5,-193.75 980.5,-187.75 980.5,-181.75 980.5,-181.75 980.5,-119 980.5,-119 980.5,-113 986.5,-107 992.5,-107 992.5,-107 1107.5,-107 1107.5,-107 1113.5,-107 1119.5,-113 1119.5,-119 1119.5,-119 1119.5,-181.75 1119.5,-181.75 1119.5,-187.75 1113.5,-193.75 1107.5,-193.75"/>
<text text-anchor="start" x="988.5" y="-176.45" font-family="Helvetica,sans-Serif" font-size="14.00">Perimeter ≤ 453.983</text>
<text text-anchor="start" x="1002.75" y="-160.7" font-family="Helvetica,sans-Serif" font-size="14.00">entropy = 0.996</text>
<text text-anchor="start" x="1009.12" y="-144.95" font-family="Helvetica,sans-Serif" font-size="14.00">samples = 86</text>
<text text-anchor="start" x="992.25" y="-129.2" font-family="Helvetica,sans-Serif" font-size="14.00">value = [40.0, 46.0]</text>
<text text-anchor="start" x="996" y="-113.45" font-family="Helvetica,sans-Serif" font-size="14.00">class = Osmancik</text>
</g>
<!-- 15&#45;&gt;16 -->
<g id="edge16" class="edge">
<title>15&#45;&gt;16</title>
<path fill="none" stroke="black" d="M1097.26,-229.55C1092.19,-221.17 1086.82,-212.28 1081.58,-203.61"/>
<polygon fill="black" stroke="black" points="1084.7,-202.01 1076.53,-195.26 1078.71,-205.63 1084.7,-202.01"/>
</g>
<!-- 19 -->
<g id="node20" class="node">
<title>19</title>
<path fill="#efb489" stroke="black" d="M1244.38,-193.75C1244.38,-193.75 1149.62,-193.75 1149.62,-193.75 1143.62,-193.75 1137.62,-187.75 1137.62,-181.75 1137.62,-181.75 1137.62,-119 1137.62,-119 1137.62,-113 1143.62,-107 1149.62,-107 1149.62,-107 1244.38,-107 1244.38,-107 1250.38,-107 1256.38,-113 1256.38,-119 1256.38,-119 1256.38,-181.75 1256.38,-181.75 1256.38,-187.75 1250.38,-193.75 1244.38,-193.75"/>
<text text-anchor="start" x="1150.88" y="-176.45" font-family="Helvetica,sans-Serif" font-size="14.00">Area ≤ 12993.5</text>
<text text-anchor="start" x="1149.75" y="-160.7" font-family="Helvetica,sans-Serif" font-size="14.00">entropy = 0.866</text>
<text text-anchor="start" x="1152.38" y="-144.95" font-family="Helvetica,sans-Serif" font-size="14.00">samples = 153</text>
<text text-anchor="start" x="1146.75" y="-129.2" font-family="Helvetica,sans-Serif" font-size="14.00">value = [109, 44]</text>
<text text-anchor="start" x="1145.62" y="-113.45" font-family="Helvetica,sans-Serif" font-size="14.00">class = Cammeo</text>
</g>
<!-- 15&#45;&gt;19 -->
<g id="edge19" class="edge">
<title>15&#45;&gt;19</title>
<path fill="none" stroke="black" d="M1149.09,-229.55C1154.23,-221.17 1159.68,-212.28 1164.99,-203.61"/>
<polygon fill="black" stroke="black" points="1167.86,-205.62 1170.11,-195.26 1161.9,-201.96 1167.86,-205.62"/>
</g>
<!-- 17 -->
<g id="node18" class="node">
<title>17</title>
<path fill="#8ac5f0" stroke="black" d="M956,-71C956,-71 856,-71 856,-71 850,-71 844,-65 844,-59 844,-59 844,-12 844,-12 844,-6 850,0 856,0 856,0 956,0 956,0 962,0 968,-6 968,-12 968,-12 968,-59 968,-59 968,-65 962,-71 956,-71"/>
<text text-anchor="start" x="858.75" y="-53.7" font-family="Helvetica,sans-Serif" font-size="14.00">entropy = 0.869</text>
<text text-anchor="start" x="865.12" y="-37.95" font-family="Helvetica,sans-Serif" font-size="14.00">samples = 31</text>
<text text-anchor="start" x="863.25" y="-22.2" font-family="Helvetica,sans-Serif" font-size="14.00">value = [9, 22]</text>
<text text-anchor="start" x="852" y="-6.45" font-family="Helvetica,sans-Serif" font-size="14.00">class = Osmancik</text>
</g>
<!-- 16&#45;&gt;17 -->
<g id="edge17" class="edge">
<title>16&#45;&gt;17</title>
<path fill="none" stroke="black" d="M995.56,-106.7C983.63,-97.35 971.01,-87.46 959.13,-78.15"/>
<polygon fill="black" stroke="black" points="961.43,-75.51 951.41,-72.09 957.12,-81.01 961.43,-75.51"/>
</g>
<!-- 18 -->
<g id="node19" class="node">
<title>18</title>
<path fill="#f9e3d2" stroke="black" d="M1105.75,-71C1105.75,-71 998.25,-71 998.25,-71 992.25,-71 986.25,-65 986.25,-59 986.25,-59 986.25,-12 986.25,-12 986.25,-6 992.25,0 998.25,0 998.25,0 1105.75,0 1105.75,0 1111.75,0 1117.75,-6 1117.75,-12 1117.75,-12 1117.75,-59 1117.75,-59 1117.75,-65 1111.75,-71 1105.75,-71"/>
<text text-anchor="start" x="1004.75" y="-53.7" font-family="Helvetica,sans-Serif" font-size="14.00">entropy = 0.988</text>
<text text-anchor="start" x="1011.12" y="-37.95" font-family="Helvetica,sans-Serif" font-size="14.00">samples = 55</text>
<text text-anchor="start" x="994.25" y="-22.2" font-family="Helvetica,sans-Serif" font-size="14.00">value = [31.0, 24.0]</text>
<text text-anchor="start" x="1000.62" y="-6.45" font-family="Helvetica,sans-Serif" font-size="14.00">class = Cammeo</text>
</g>
<!-- 16&#45;&gt;18 -->
<g id="edge18" class="edge">
<title>16&#45;&gt;18</title>
<path fill="none" stroke="black" d="M1050.76,-106.7C1050.9,-98.82 1051.04,-90.55 1051.18,-82.57"/>
<polygon fill="black" stroke="black" points="1054.68,-82.73 1051.36,-72.67 1047.68,-82.61 1054.68,-82.73"/>
</g>
<!-- 20 -->
<g id="node21" class="node">
<title>20</title>
<path fill="#eda673" stroke="black" d="M1242.38,-71C1242.38,-71 1147.62,-71 1147.62,-71 1141.62,-71 1135.62,-65 1135.62,-59 1135.62,-59 1135.62,-12 1135.62,-12 1135.62,-6 1141.62,0 1147.62,0 1147.62,0 1242.38,0 1242.38,0 1248.38,0 1254.38,-6 1254.38,-12 1254.38,-12 1254.38,-59 1254.38,-59 1254.38,-65 1248.38,-71 1242.38,-71"/>
<text text-anchor="start" x="1147.75" y="-53.7" font-family="Helvetica,sans-Serif" font-size="14.00">entropy = 0.773</text>
<text text-anchor="start" x="1150.75" y="-37.95" font-family="Helvetica,sans-Serif" font-size="14.00">samples = 110</text>
<text text-anchor="start" x="1148.5" y="-22.2" font-family="Helvetica,sans-Serif" font-size="14.00">value = [85, 25]</text>
<text text-anchor="start" x="1143.62" y="-6.45" font-family="Helvetica,sans-Serif" font-size="14.00">class = Cammeo</text>
</g>
<!-- 19&#45;&gt;20 -->
<g id="edge20" class="edge">
<title>19&#45;&gt;20</title>
<path fill="none" stroke="black" d="M1196.24,-106.7C1196.1,-98.82 1195.96,-90.55 1195.82,-82.57"/>
<polygon fill="black" stroke="black" points="1199.32,-82.61 1195.64,-72.67 1192.32,-82.73 1199.32,-82.61"/>
</g>
<!-- 21 -->
<g id="node22" class="node">
<title>21</title>
<path fill="#fae5d6" stroke="black" d="M1379.38,-71C1379.38,-71 1284.62,-71 1284.62,-71 1278.62,-71 1272.62,-65 1272.62,-59 1272.62,-59 1272.62,-12 1272.62,-12 1272.62,-6 1278.62,0 1284.62,0 1284.62,0 1379.38,0 1379.38,0 1385.38,0 1391.38,-6 1391.38,-12 1391.38,-12 1391.38,-59 1391.38,-59 1391.38,-65 1385.38,-71 1379.38,-71"/>
<text text-anchor="start" x="1288.5" y="-53.7" font-family="Helvetica,sans-Serif" font-size="14.00">entropy = 0.99</text>
<text text-anchor="start" x="1291.12" y="-37.95" font-family="Helvetica,sans-Serif" font-size="14.00">samples = 43</text>
<text text-anchor="start" x="1285.5" y="-22.2" font-family="Helvetica,sans-Serif" font-size="14.00">value = [24, 19]</text>
<text text-anchor="start" x="1280.62" y="-6.45" font-family="Helvetica,sans-Serif" font-size="14.00">class = Cammeo</text>
</g>
<!-- 19&#45;&gt;21 -->
<g id="edge21" class="edge">
<title>19&#45;&gt;21</title>
<path fill="none" stroke="black" d="M1248.04,-106.7C1259.11,-97.44 1270.82,-87.65 1281.86,-78.42"/>
<polygon fill="black" stroke="black" points="1283.96,-81.23 1289.39,-72.13 1279.47,-75.86 1283.96,-81.23"/>
</g>
<!-- 23 -->
<g id="node24" class="node">
<title>23</title>
<path fill="#e78c4b" stroke="black" d="M1555,-193.75C1555,-193.75 1383,-193.75 1383,-193.75 1377,-193.75 1371,-187.75 1371,-181.75 1371,-181.75 1371,-119 1371,-119 1371,-113 1377,-107 1383,-107 1383,-107 1555,-107 1555,-107 1561,-107 1567,-113 1567,-119 1567,-119 1567,-181.75 1567,-181.75 1567,-187.75 1561,-193.75 1555,-193.75"/>
<text text-anchor="start" x="1379" y="-176.45" font-family="Helvetica,sans-Serif" font-size="14.00">Major_Axis_Length ≤ 197.195</text>
<text text-anchor="start" x="1421.75" y="-160.7" font-family="Helvetica,sans-Serif" font-size="14.00">entropy = 0.407</text>
<text text-anchor="start" x="1424.38" y="-144.95" font-family="Helvetica,sans-Serif" font-size="14.00">samples = 467</text>
<text text-anchor="start" x="1418.75" y="-129.2" font-family="Helvetica,sans-Serif" font-size="14.00">value = [429, 38]</text>
<text text-anchor="start" x="1417.62" y="-113.45" font-family="Helvetica,sans-Serif" font-size="14.00">class = Cammeo</text>
</g>
<!-- 22&#45;&gt;23 -->
<g id="edge23" class="edge">
<title>22&#45;&gt;23</title>
<path fill="none" stroke="black" d="M1469,-229.55C1469,-221.71 1469,-213.42 1469,-205.29"/>
<polygon fill="black" stroke="black" points="1472.5,-205.48 1469,-195.48 1465.5,-205.48 1472.5,-205.48"/>
</g>
<!-- 26 -->
<g id="node27" class="node">
<title>26</title>
<path fill="#e58139" stroke="black" d="M1691.38,-185.88C1691.38,-185.88 1596.62,-185.88 1596.62,-185.88 1590.62,-185.88 1584.62,-179.88 1584.62,-173.88 1584.62,-173.88 1584.62,-126.88 1584.62,-126.88 1584.62,-120.88 1590.62,-114.88 1596.62,-114.88 1596.62,-114.88 1691.38,-114.88 1691.38,-114.88 1697.38,-114.88 1703.38,-120.88 1703.38,-126.88 1703.38,-126.88 1703.38,-173.88 1703.38,-173.88 1703.38,-179.88 1697.38,-185.88 1691.38,-185.88"/>
<text text-anchor="start" x="1604.25" y="-168.57" font-family="Helvetica,sans-Serif" font-size="14.00">entropy = 0.0</text>
<text text-anchor="start" x="1599.38" y="-152.82" font-family="Helvetica,sans-Serif" font-size="14.00">samples = 644</text>
<text text-anchor="start" x="1597.5" y="-137.07" font-family="Helvetica,sans-Serif" font-size="14.00">value = [644, 0]</text>
<text text-anchor="start" x="1592.62" y="-121.33" font-family="Helvetica,sans-Serif" font-size="14.00">class = Cammeo</text>
</g>
<!-- 22&#45;&gt;26 -->
<g id="edge26" class="edge">
<title>22&#45;&gt;26</title>
<path fill="none" stroke="black" d="M1530.7,-229.55C1548.05,-217.58 1566.89,-204.58 1584.14,-192.68"/>
<polygon fill="black" stroke="black" points="1586.04,-195.62 1592.29,-187.06 1582.07,-189.86 1586.04,-195.62"/>
</g>
<!-- 24 -->
<g id="node25" class="node">
<title>24</title>
<path fill="#eb9c63" stroke="black" d="M1516.38,-71C1516.38,-71 1421.62,-71 1421.62,-71 1415.62,-71 1409.62,-65 1409.62,-59 1409.62,-59 1409.62,-12 1409.62,-12 1409.62,-6 1415.62,0 1421.62,0 1421.62,0 1516.38,0 1516.38,0 1522.38,0 1528.38,-6 1528.38,-12 1528.38,-12 1528.38,-59 1528.38,-59 1528.38,-65 1522.38,-71 1516.38,-71"/>
<text text-anchor="start" x="1421.75" y="-53.7" font-family="Helvetica,sans-Serif" font-size="14.00">entropy = 0.669</text>
<text text-anchor="start" x="1428.12" y="-37.95" font-family="Helvetica,sans-Serif" font-size="14.00">samples = 80</text>
<text text-anchor="start" x="1422.5" y="-22.2" font-family="Helvetica,sans-Serif" font-size="14.00">value = [66, 14]</text>
<text text-anchor="start" x="1417.62" y="-6.45" font-family="Helvetica,sans-Serif" font-size="14.00">class = Cammeo</text>
</g>
<!-- 23&#45;&gt;24 -->
<g id="edge24" class="edge">
<title>23&#45;&gt;24</title>
<path fill="none" stroke="black" d="M1469,-106.7C1469,-98.82 1469,-90.55 1469,-82.57"/>
<polygon fill="black" stroke="black" points="1472.5,-82.67 1469,-72.67 1465.5,-82.67 1472.5,-82.67"/>
</g>
<!-- 25 -->
<g id="node26" class="node">
<title>25</title>
<path fill="#e78946" stroke="black" d="M1653.38,-71C1653.38,-71 1558.62,-71 1558.62,-71 1552.62,-71 1546.62,-65 1546.62,-59 1546.62,-59 1546.62,-12 1546.62,-12 1546.62,-6 1552.62,0 1558.62,0 1558.62,0 1653.38,0 1653.38,0 1659.38,0 1665.38,-6 1665.38,-12 1665.38,-12 1665.38,-59 1665.38,-59 1665.38,-65 1659.38,-71 1653.38,-71"/>
<text text-anchor="start" x="1558.75" y="-53.7" font-family="Helvetica,sans-Serif" font-size="14.00">entropy = 0.335</text>
<text text-anchor="start" x="1561.38" y="-37.95" font-family="Helvetica,sans-Serif" font-size="14.00">samples = 387</text>
<text text-anchor="start" x="1555.75" y="-22.2" font-family="Helvetica,sans-Serif" font-size="14.00">value = [363, 24]</text>
<text text-anchor="start" x="1554.62" y="-6.45" font-family="Helvetica,sans-Serif" font-size="14.00">class = Cammeo</text>
</g>
<!-- 23&#45;&gt;25 -->
<g id="edge25" class="edge">
<title>23&#45;&gt;25</title>
<path fill="none" stroke="black" d="M1520.79,-106.7C1532.03,-97.44 1543.91,-87.65 1555.12,-78.42"/>
<polygon fill="black" stroke="black" points="1557.27,-81.18 1562.77,-72.12 1552.82,-75.78 1557.27,-81.18"/>
</g>
</g>
</svg>
