<?xml version="1.0" encoding="UTF-8" standalone="no"?>
<!DOCTYPE svg PUBLIC "-//W3C//DTD SVG 1.1//EN"
 "http://www.w3.org/Graphics/SVG/1.1/DTD/svg11.dtd">
<!-- Generated by graphviz version 12.1.2 (0)
 -->
<!-- Title: Tree Pages: 1 -->
<svg width="1118pt" height="478pt"
 viewBox="0.00 0.00 1118.38 477.75" xmlns="http://www.w3.org/2000/svg" xmlns:xlink="http://www.w3.org/1999/xlink">
<g id="graph0" class="graph" transform="scale(1 1) rotate(0) translate(4 473.75)">
<title>Tree</title>
<polygon fill="white" stroke="none" points="-4,4 -4,-473.75 1114.38,-473.75 1114.38,4 -4,4"/>
<text text-anchor="middle" x="555.19" y="-446.75" font-family="Times,serif" font-size="20.00">Decision Tree (Train= 80%, Test= 20%, max_depth= 3)</text>
<!-- 0 -->
<g id="node1" class="node">
<title>0</title>
<path fill="#cde6f8" stroke="black" d="M645,-439.25C645,-439.25 473,-439.25 473,-439.25 467,-439.25 461,-433.25 461,-427.25 461,-427.25 461,-364.5 461,-364.5 461,-358.5 467,-352.5 473,-352.5 473,-352.5 645,-352.5 645,-352.5 651,-352.5 657,-358.5 657,-364.5 657,-364.5 657,-427.25 657,-427.25 657,-433.25 651,-439.25 645,-439.25"/>
<text text-anchor="start" x="469" y="-421.95" font-family="Helvetica,sans-Serif" font-size="14.00">Major_Axis_Length ≤ 190.641</text>
<text text-anchor="start" x="511.75" y="-406.2" font-family="Helvetica,sans-Serif" font-size="14.00">entropy = 0.985</text>
<text text-anchor="start" x="510.62" y="-390.45" font-family="Helvetica,sans-Serif" font-size="14.00">samples = 3048</text>
<text text-anchor="start" x="497.5" y="-374.7" font-family="Helvetica,sans-Serif" font-size="14.00">value = [1304, 1744]</text>
<text text-anchor="start" x="505" y="-358.95" font-family="Helvetica,sans-Serif" font-size="14.00">class = Osmancik</text>
</g>
<!-- 1 -->
<g id="node2" class="node">
<title>1</title>
<path fill="#43a2e6" stroke="black" d="M538,-316.5C538,-316.5 366,-316.5 366,-316.5 360,-316.5 354,-310.5 354,-304.5 354,-304.5 354,-241.75 354,-241.75 354,-235.75 360,-229.75 366,-229.75 366,-229.75 538,-229.75 538,-229.75 544,-229.75 550,-235.75 550,-241.75 550,-241.75 550,-304.5 550,-304.5 550,-310.5 544,-316.5 538,-316.5"/>
<text text-anchor="start" x="362" y="-299.2" font-family="Helvetica,sans-Serif" font-size="14.00">Major_Axis_Length ≤ 181.237</text>
<text text-anchor="start" x="404.75" y="-283.45" font-family="Helvetica,sans-Serif" font-size="14.00">entropy = 0.279</text>
<text text-anchor="start" x="403.62" y="-267.7" font-family="Helvetica,sans-Serif" font-size="14.00">samples = 1698</text>
<text text-anchor="start" x="398" y="-251.95" font-family="Helvetica,sans-Serif" font-size="14.00">value = [82, 1616]</text>
<text text-anchor="start" x="398" y="-236.2" font-family="Helvetica,sans-Serif" font-size="14.00">class = Osmancik</text>
</g>
<!-- 0&#45;&gt;1 -->
<g id="edge1" class="edge">
<title>0&#45;&gt;1</title>
<path fill="none" stroke="black" d="M521.28,-352.3C513.52,-343.56 505.29,-334.26 497.3,-325.25"/>
<polygon fill="black" stroke="black" points="500,-323.02 490.75,-317.85 494.76,-327.66 500,-323.02"/>
<text text-anchor="middle" x="488.24" y="-336.25" font-family="Helvetica,sans-Serif" font-size="14.00">True</text>
</g>
<!-- 8 -->
<g id="node9" class="node">
<title>8</title>
<path fill="#e88e4e" stroke="black" d="M724.5,-316.5C724.5,-316.5 609.5,-316.5 609.5,-316.5 603.5,-316.5 597.5,-310.5 597.5,-304.5 597.5,-304.5 597.5,-241.75 597.5,-241.75 597.5,-235.75 603.5,-229.75 609.5,-229.75 609.5,-229.75 724.5,-229.75 724.5,-229.75 730.5,-229.75 736.5,-235.75 736.5,-241.75 736.5,-241.75 736.5,-304.5 736.5,-304.5 736.5,-310.5 730.5,-316.5 724.5,-316.5"/>
<text text-anchor="start" x="605.5" y="-299.2" font-family="Helvetica,sans-Serif" font-size="14.00">Perimeter ≤ 467.861</text>
<text text-anchor="start" x="619.75" y="-283.45" font-family="Helvetica,sans-Serif" font-size="14.00">entropy = 0.452</text>
<text text-anchor="start" x="618.62" y="-267.7" font-family="Helvetica,sans-Serif" font-size="14.00">samples = 1350</text>
<text text-anchor="start" x="609.25" y="-251.95" font-family="Helvetica,sans-Serif" font-size="14.00">value = [1222, 128]</text>
<text text-anchor="start" x="615.62" y="-236.2" font-family="Helvetica,sans-Serif" font-size="14.00">class = Cammeo</text>
</g>
<!-- 0&#45;&gt;8 -->
<g id="edge8" class="edge">
<title>0&#45;&gt;8</title>
<path fill="none" stroke="black" d="M597.08,-352.3C604.9,-343.56 613.21,-334.26 621.28,-325.25"/>
<polygon fill="black" stroke="black" points="623.84,-327.63 627.89,-317.85 618.62,-322.97 623.84,-327.63"/>
<text text-anchor="middle" x="630.29" y="-336.26" font-family="Helvetica,sans-Serif" font-size="14.00">False</text>
</g>
<!-- 2 -->
<g id="node3" class="node">
<title>2</title>
<path fill="#3b9ee5" stroke="black" d="M290,-193.75C290,-193.75 118,-193.75 118,-193.75 112,-193.75 106,-187.75 106,-181.75 106,-181.75 106,-119 106,-119 106,-113 112,-107 118,-107 118,-107 290,-107 290,-107 296,-107 302,-113 302,-119 302,-119 302,-181.75 302,-181.75 302,-187.75 296,-193.75 290,-193.75"/>
<text text-anchor="start" x="114" y="-176.45" font-family="Helvetica,sans-Serif" font-size="14.00">Major_Axis_Length ≤ 170.776</text>
<text text-anchor="start" x="156.75" y="-160.7" font-family="Helvetica,sans-Serif" font-size="14.00">entropy = 0.077</text>
<text text-anchor="start" x="155.62" y="-144.95" font-family="Helvetica,sans-Serif" font-size="14.00">samples = 1282</text>
<text text-anchor="start" x="150" y="-129.2" font-family="Helvetica,sans-Serif" font-size="14.00">value = [12, 1270]</text>
<text text-anchor="start" x="150" y="-113.45" font-family="Helvetica,sans-Serif" font-size="14.00">class = Osmancik</text>
</g>
<!-- 1&#45;&gt;2 -->
<g id="edge2" class="edge">
<title>1&#45;&gt;2</title>
<path fill="none" stroke="black" d="M364.22,-229.38C344.07,-219.57 322.53,-209.09 301.98,-199.08"/>
<polygon fill="black" stroke="black" points="303.55,-195.95 293.03,-194.72 300.49,-202.25 303.55,-195.95"/>
</g>
<!-- 5 -->
<g id="node6" class="node">
<title>5</title>
<path fill="#61b1ea" stroke="black" d="M538,-193.75C538,-193.75 366,-193.75 366,-193.75 360,-193.75 354,-187.75 354,-181.75 354,-181.75 354,-119 354,-119 354,-113 360,-107 366,-107 366,-107 538,-107 538,-107 544,-107 550,-113 550,-119 550,-119 550,-181.75 550,-181.75 550,-187.75 544,-193.75 538,-193.75"/>
<text text-anchor="start" x="362" y="-176.45" font-family="Helvetica,sans-Serif" font-size="14.00">Major_Axis_Length ≤ 186.506</text>
<text text-anchor="start" x="404.75" y="-160.7" font-family="Helvetica,sans-Serif" font-size="14.00">entropy = 0.654</text>
<text text-anchor="start" x="407.38" y="-144.95" font-family="Helvetica,sans-Serif" font-size="14.00">samples = 416</text>
<text text-anchor="start" x="401.75" y="-129.2" font-family="Helvetica,sans-Serif" font-size="14.00">value = [70, 346]</text>
<text text-anchor="start" x="398" y="-113.45" font-family="Helvetica,sans-Serif" font-size="14.00">class = Osmancik</text>
</g>
<!-- 1&#45;&gt;5 -->
<g id="edge5" class="edge">
<title>1&#45;&gt;5</title>
<path fill="none" stroke="black" d="M452,-229.55C452,-221.71 452,-213.42 452,-205.29"/>
<polygon fill="black" stroke="black" points="455.5,-205.48 452,-195.48 448.5,-205.48 455.5,-205.48"/>
</g>
<!-- 3 -->
<g id="node4" class="node">
<title>3</title>
<path fill="#399de5" stroke="black" d="M112,-71C112,-71 12,-71 12,-71 6,-71 0,-65 0,-59 0,-59 0,-12 0,-12 0,-6 6,0 12,0 12,0 112,0 112,0 118,0 124,-6 124,-12 124,-12 124,-59 124,-59 124,-65 118,-71 112,-71"/>
<text text-anchor="start" x="22.25" y="-53.7" font-family="Helvetica,sans-Serif" font-size="14.00">entropy = 0.0</text>
<text text-anchor="start" x="17.38" y="-37.95" font-family="Helvetica,sans-Serif" font-size="14.00">samples = 502</text>
<text text-anchor="start" x="15.5" y="-22.2" font-family="Helvetica,sans-Serif" font-size="14.00">value = [0, 502]</text>
<text text-anchor="start" x="8" y="-6.45" font-family="Helvetica,sans-Serif" font-size="14.00">class = Osmancik</text>
</g>
<!-- 2&#45;&gt;3 -->
<g id="edge3" class="edge">
<title>2&#45;&gt;3</title>
<path fill="none" stroke="black" d="M150.32,-106.7C138.55,-97.35 126.11,-87.46 114.39,-78.15"/>
<polygon fill="black" stroke="black" points="116.79,-75.58 106.78,-72.1 112.44,-81.06 116.79,-75.58"/>
</g>
<!-- 4 -->
<g id="node5" class="node">
<title>4</title>
<path fill="#3c9fe5" stroke="black" d="M254,-71C254,-71 154,-71 154,-71 148,-71 142,-65 142,-59 142,-59 142,-12 142,-12 142,-6 148,0 154,0 154,0 254,0 254,0 260,0 266,-6 266,-12 266,-12 266,-59 266,-59 266,-65 260,-71 254,-71"/>
<text text-anchor="start" x="157.12" y="-53.7" font-family="Helvetica,sans-Serif" font-size="14.00">entropy = 0.115</text>
<text text-anchor="start" x="159.38" y="-37.95" font-family="Helvetica,sans-Serif" font-size="14.00">samples = 780</text>
<text text-anchor="start" x="153.75" y="-22.2" font-family="Helvetica,sans-Serif" font-size="14.00">value = [12, 768]</text>
<text text-anchor="start" x="150" y="-6.45" font-family="Helvetica,sans-Serif" font-size="14.00">class = Osmancik</text>
</g>
<!-- 2&#45;&gt;4 -->
<g id="edge4" class="edge">
<title>2&#45;&gt;4</title>
<path fill="none" stroke="black" d="M204,-106.7C204,-98.82 204,-90.55 204,-82.57"/>
<polygon fill="black" stroke="black" points="207.5,-82.67 204,-72.67 200.5,-82.67 207.5,-82.67"/>
</g>
<!-- 6 -->
<g id="node7" class="node">
<title>6</title>
<path fill="#54abe9" stroke="black" d="M396,-71C396,-71 296,-71 296,-71 290,-71 284,-65 284,-59 284,-59 284,-12 284,-12 284,-6 290,0 296,0 296,0 396,0 396,0 402,0 408,-6 408,-12 408,-12 408,-59 408,-59 408,-65 402,-71 396,-71"/>
<text text-anchor="start" x="298.75" y="-53.7" font-family="Helvetica,sans-Serif" font-size="14.00">entropy = 0.534</text>
<text text-anchor="start" x="301.38" y="-37.95" font-family="Helvetica,sans-Serif" font-size="14.00">samples = 271</text>
<text text-anchor="start" x="295.75" y="-22.2" font-family="Helvetica,sans-Serif" font-size="14.00">value = [33, 238]</text>
<text text-anchor="start" x="292" y="-6.45" font-family="Helvetica,sans-Serif" font-size="14.00">class = Osmancik</text>
</g>
<!-- 5&#45;&gt;6 -->
<g id="edge6" class="edge">
<title>5&#45;&gt;6</title>
<path fill="none" stroke="black" d="M411.93,-106.7C403.57,-97.81 394.76,-88.43 386.4,-79.52"/>
<polygon fill="black" stroke="black" points="388.98,-77.15 379.58,-72.26 383.88,-81.95 388.98,-77.15"/>
</g>
<!-- 7 -->
<g id="node8" class="node">
<title>7</title>
<path fill="#7dbfee" stroke="black" d="M538,-71C538,-71 438,-71 438,-71 432,-71 426,-65 426,-59 426,-59 426,-12 426,-12 426,-6 432,0 438,0 438,0 538,0 538,0 544,0 550,-6 550,-12 550,-12 550,-59 550,-59 550,-65 544,-71 538,-71"/>
<text text-anchor="start" x="440.75" y="-53.7" font-family="Helvetica,sans-Serif" font-size="14.00">entropy = 0.819</text>
<text text-anchor="start" x="443.38" y="-37.95" font-family="Helvetica,sans-Serif" font-size="14.00">samples = 145</text>
<text text-anchor="start" x="437.75" y="-22.2" font-family="Helvetica,sans-Serif" font-size="14.00">value = [37, 108]</text>
<text text-anchor="start" x="434" y="-6.45" font-family="Helvetica,sans-Serif" font-size="14.00">class = Osmancik</text>
</g>
<!-- 5&#45;&gt;7 -->
<g id="edge7" class="edge">
<title>5&#45;&gt;7</title>
<path fill="none" stroke="black" d="M465.61,-106.7C468.18,-98.63 470.88,-90.16 473.48,-82.01"/>
<polygon fill="black" stroke="black" points="476.78,-83.19 476.49,-72.6 470.11,-81.06 476.78,-83.19"/>
</g>
<!-- 9 -->
<g id="node10" class="node">
<title>9</title>
<path fill="#f5cdb1" stroke="black" d="M753,-193.75C753,-193.75 581,-193.75 581,-193.75 575,-193.75 569,-187.75 569,-181.75 569,-181.75 569,-119 569,-119 569,-113 575,-107 581,-107 581,-107 753,-107 753,-107 759,-107 765,-113 765,-119 765,-119 765,-181.75 765,-181.75 765,-187.75 759,-193.75 753,-193.75"/>
<text text-anchor="start" x="577" y="-176.45" font-family="Helvetica,sans-Serif" font-size="14.00">Major_Axis_Length ≤ 192.971</text>
<text text-anchor="start" x="619.75" y="-160.7" font-family="Helvetica,sans-Serif" font-size="14.00">entropy = 0.956</text>
<text text-anchor="start" x="622.38" y="-144.95" font-family="Helvetica,sans-Serif" font-size="14.00">samples = 239</text>
<text text-anchor="start" x="616.75" y="-129.2" font-family="Helvetica,sans-Serif" font-size="14.00">value = [149, 90]</text>
<text text-anchor="start" x="615.62" y="-113.45" font-family="Helvetica,sans-Serif" font-size="14.00">class = Cammeo</text>
</g>
<!-- 8&#45;&gt;9 -->
<g id="edge9" class="edge">
<title>8&#45;&gt;9</title>
<path fill="none" stroke="black" d="M667,-229.55C667,-221.71 667,-213.42 667,-205.29"/>
<polygon fill="black" stroke="black" points="670.5,-205.48 667,-195.48 663.5,-205.48 670.5,-205.48"/>
</g>
<!-- 12 -->
<g id="node13" class="node">
<title>12</title>
<path fill="#e68540" stroke="black" d="M1000,-193.75C1000,-193.75 828,-193.75 828,-193.75 822,-193.75 816,-187.75 816,-181.75 816,-181.75 816,-119 816,-119 816,-113 822,-107 828,-107 828,-107 1000,-107 1000,-107 1006,-107 1012,-113 1012,-119 1012,-119 1012,-181.75 1012,-181.75 1012,-187.75 1006,-193.75 1000,-193.75"/>
<text text-anchor="start" x="824" y="-176.45" font-family="Helvetica,sans-Serif" font-size="14.00">Major_Axis_Length ≤ 206.059</text>
<text text-anchor="start" x="866.75" y="-160.7" font-family="Helvetica,sans-Serif" font-size="14.00">entropy = 0.215</text>
<text text-anchor="start" x="866.75" y="-144.95" font-family="Helvetica,sans-Serif" font-size="14.00">samples = 1111</text>
<text text-anchor="start" x="860" y="-129.2" font-family="Helvetica,sans-Serif" font-size="14.00">value = [1073, 38]</text>
<text text-anchor="start" x="862.62" y="-113.45" font-family="Helvetica,sans-Serif" font-size="14.00">class = Cammeo</text>
</g>
<!-- 8&#45;&gt;12 -->
<g id="edge12" class="edge">
<title>8&#45;&gt;12</title>
<path fill="none" stroke="black" d="M736.79,-238.01C761.46,-225.95 789.67,-212.15 816.23,-199.17"/>
<polygon fill="black" stroke="black" points="817.51,-202.44 824.96,-194.91 814.44,-196.15 817.51,-202.44"/>
</g>
<!-- 10 -->
<g id="node11" class="node">
<title>10</title>
<path fill="#e5f2fc" stroke="black" d="M687.75,-71C687.75,-71 580.25,-71 580.25,-71 574.25,-71 568.25,-65 568.25,-59 568.25,-59 568.25,-12 568.25,-12 568.25,-6 574.25,0 580.25,0 580.25,0 687.75,0 687.75,0 693.75,0 699.75,-6 699.75,-12 699.75,-12 699.75,-59 699.75,-59 699.75,-65 693.75,-71 687.75,-71"/>
<text text-anchor="start" x="586.75" y="-53.7" font-family="Helvetica,sans-Serif" font-size="14.00">entropy = 0.996</text>
<text text-anchor="start" x="593.12" y="-37.95" font-family="Helvetica,sans-Serif" font-size="14.00">samples = 86</text>
<text text-anchor="start" x="576.25" y="-22.2" font-family="Helvetica,sans-Serif" font-size="14.00">value = [40.0, 46.0]</text>
<text text-anchor="start" x="580" y="-6.45" font-family="Helvetica,sans-Serif" font-size="14.00">class = Osmancik</text>
</g>
<!-- 9&#45;&gt;10 -->
<g id="edge10" class="edge">
<title>9&#45;&gt;10</title>
<path fill="none" stroke="black" d="M654.52,-106.7C652.17,-98.63 649.69,-90.16 647.31,-82.01"/>
<polygon fill="black" stroke="black" points="650.72,-81.23 644.56,-72.61 644,-83.19 650.72,-81.23"/>
</g>
<!-- 11 -->
<g id="node12" class="node">
<title>11</title>
<path fill="#efb489" stroke="black" d="M824.38,-71C824.38,-71 729.62,-71 729.62,-71 723.62,-71 717.62,-65 717.62,-59 717.62,-59 717.62,-12 717.62,-12 717.62,-6 723.62,0 729.62,0 729.62,0 824.38,0 824.38,0 830.38,0 836.38,-6 836.38,-12 836.38,-12 836.38,-59 836.38,-59 836.38,-65 830.38,-71 824.38,-71"/>
<text text-anchor="start" x="729.75" y="-53.7" font-family="Helvetica,sans-Serif" font-size="14.00">entropy = 0.866</text>
<text text-anchor="start" x="732.38" y="-37.95" font-family="Helvetica,sans-Serif" font-size="14.00">samples = 153</text>
<text text-anchor="start" x="726.75" y="-22.2" font-family="Helvetica,sans-Serif" font-size="14.00">value = [109, 44]</text>
<text text-anchor="start" x="725.62" y="-6.45" font-family="Helvetica,sans-Serif" font-size="14.00">class = Cammeo</text>
</g>
<!-- 9&#45;&gt;11 -->
<g id="edge11" class="edge">
<title>9&#45;&gt;11</title>
<path fill="none" stroke="black" d="M708.59,-106.7C717.34,-97.72 726.58,-88.23 735.34,-79.25"/>
<polygon fill="black" stroke="black" points="737.7,-81.85 742.17,-72.24 732.68,-76.96 737.7,-81.85"/>
</g>
<!-- 13 -->
<g id="node14" class="node">
<title>13</title>
<path fill="#e78c4b" stroke="black" d="M961.38,-71C961.38,-71 866.62,-71 866.62,-71 860.62,-71 854.62,-65 854.62,-59 854.62,-59 854.62,-12 854.62,-12 854.62,-6 860.62,0 866.62,0 866.62,0 961.38,0 961.38,0 967.38,0 973.38,-6 973.38,-12 973.38,-12 973.38,-59 973.38,-59 973.38,-65 967.38,-71 961.38,-71"/>
<text text-anchor="start" x="866.75" y="-53.7" font-family="Helvetica,sans-Serif" font-size="14.00">entropy = 0.407</text>
<text text-anchor="start" x="869.38" y="-37.95" font-family="Helvetica,sans-Serif" font-size="14.00">samples = 467</text>
<text text-anchor="start" x="863.75" y="-22.2" font-family="Helvetica,sans-Serif" font-size="14.00">value = [429, 38]</text>
<text text-anchor="start" x="862.62" y="-6.45" font-family="Helvetica,sans-Serif" font-size="14.00">class = Cammeo</text>
</g>
<!-- 12&#45;&gt;13 -->
<g id="edge13" class="edge">
<title>12&#45;&gt;13</title>
<path fill="none" stroke="black" d="M914,-106.7C914,-98.82 914,-90.55 914,-82.57"/>
<polygon fill="black" stroke="black" points="917.5,-82.67 914,-72.67 910.5,-82.67 917.5,-82.67"/>
</g>
<!-- 14 -->
<g id="node15" class="node">
<title>14</title>
<path fill="#e58139" stroke="black" d="M1098.38,-71C1098.38,-71 1003.62,-71 1003.62,-71 997.62,-71 991.62,-65 991.62,-59 991.62,-59 991.62,-12 991.62,-12 991.62,-6 997.62,0 1003.62,0 1003.62,0 1098.38,0 1098.38,0 1104.38,0 1110.38,-6 1110.38,-12 1110.38,-12 1110.38,-59 1110.38,-59 1110.38,-65 1104.38,-71 1098.38,-71"/>
<text text-anchor="start" x="1011.25" y="-53.7" font-family="Helvetica,sans-Serif" font-size="14.00">entropy = 0.0</text>
<text text-anchor="start" x="1006.38" y="-37.95" font-family="Helvetica,sans-Serif" font-size="14.00">samples = 644</text>
<text text-anchor="start" x="1004.5" y="-22.2" font-family="Helvetica,sans-Serif" font-size="14.00">value = [644, 0]</text>
<text text-anchor="start" x="999.62" y="-6.45" font-family="Helvetica,sans-Serif" font-size="14.00">class = Cammeo</text>
</g>
<!-- 12&#45;&gt;14 -->
<g id="edge14" class="edge">
<title>12&#45;&gt;14</title>
<path fill="none" stroke="black" d="M965.79,-106.7C977.03,-97.44 988.91,-87.65 1000.12,-78.42"/>
<polygon fill="black" stroke="black" points="1002.27,-81.18 1007.77,-72.12 997.82,-75.78 1002.27,-81.18"/>
</g>
</g>
</svg>
